{
  "accessors": [
    {
      "bufferView": 2,
      "componentType": 5126,
      "count": 1402,
      "max": [
        1.3059406280517578,
        0.3136537969112396,
        0.3834783732891083
      ],
      "min": [
        -0.2565217912197113,
        -0.3136537969112396,
        -0.015812290832400322
      ],
      "type": "VEC3"
    },
    {
      "bufferView": 2,
      "byteOffset": 16824,
      "componentType": 5126,
      "count": 1402,
      "max": [
        0.9999312162399292,
        0.9999915361404419,
        0.9999962449073792
      ],
      "min": [
        -1.0,
        -0.9999915361404419,
        -1.0
      ],
      "type": "VEC3"
    },
    {
      "bufferView": 1,
      "componentType": 5126,
      "count": 1402,
      "max": [
        0.8709812760353088,
        0.9986966252326965
      ],
      "min": [
        0.001302786055020988,
        0.0013027637032791972
      ],
      "type": "VEC2"
    },
    {
      "bufferView": 1,
      "byteOffset": 11216,
      "componentType": 5126,
      "count": 1402,
      "max": [
        0.8709812760353088,
        0.9986966252326965
      ],
      "min": [
        0.001302786055020988,
        0.0013027637032791972
      ],
      "type": "VEC2"
    },
    {
      "bufferView": 0,
      "componentType": 5125,
      "count": 6600,
      "type": "SCALAR"
    },
    {
      "bufferView": 2,
      "byteOffset": 33648,
      "componentType": 5126,
      "count": 332,
      "max": [
        0.10924184322357178,
        0.10924196243286133,
        0.04573308676481247
      ],
      "min": [
        -0.10924181342124939,
        -0.10924181342124939,
        -0.5930485725402832
      ],
      "type": "VEC3"
    },
    {
      "bufferView": 2,
      "byteOffset": 37632,
      "componentType": 5126,
      "count": 332,
      "max": [
        0.9291560053825378,
        0.929156482219696,
        0.9955598711967468
      ],
      "min": [
        -0.9291560053825378,
        -0.9291563034057617,
        -0.9955598711967468
      ],
      "type": "VEC3"
    },
    {
      "bufferView": 1,
      "byteOffset": 22432,
      "componentType": 5126,
      "count": 332,
      "max": [
        0.978223443031311,
        0.9850960373878479
      ],
      "min": [
        0.622581958770752,
        0.2535472810268402
      ],
      "type": "VEC2"
    },
    {
      "bufferView": 1,
      "byteOffset": 25088,
      "componentType": 5126,
      "count": 332,
      "max": [
        0.978223443031311,
        0.9850960373878479
      ],
      "min": [
        0.622581958770752,
        0.2535472810268402
      ],
      "type": "VEC2"
    },
    {
      "bufferView": 0,
      "byteOffset": 26400,
      "componentType": 5125,
      "count": 1512,
      "type": "SCALAR"
    },
    {
      "bufferView": 2,
      "byteOffset": 41616,
      "componentType": 5126,
      "count": 100,
      "max": [
        0.04938404634594917,
        0.03179093822836876,
        0.040150951594114304
      ],
      "min": [
        -0.4377507269382477,
        -0.029683852568268776,
        -0.03960231691598892
      ],
      "type": "VEC3"
    },
    {
      "bufferView": 2,
      "byteOffset": 42816,
      "componentType": 5126,
      "count": 100,
      "max": [
        0.999981164932251,
        0.995439350605011,
        0.9873773455619812
      ],
      "min": [
        -0.999981164932251,
        -1.0,
        -0.7149883508682251
      ],
      "type": "VEC3"
    },
    {
      "bufferView": 1,
      "byteOffset": 27744,
      "componentType": 5126,
      "count": 100,
      "max": [
        0.6298729777336121,
        0.6525447964668274
      ],
      "min": [
        0.5451919436454773,
        0.520573079586029
      ],
      "type": "VEC2"
    },
    {
      "bufferView": 1,
      "byteOffset": 28544,
      "componentType": 5126,
      "count": 100,
      "max": [
        0.6298729777336121,
        0.6525447964668274
      ],
      "min": [
        0.5451919436454773,
        0.520573079586029
      ],
      "type": "VEC2"
    },
    {
      "bufferView": 0,
      "byteOffset": 32448,
      "componentType": 5125,
      "count": 264,
      "type": "SCALAR"
    },
    {
      "bufferView": 2,
      "byteOffset": 44016,
      "componentType": 5126,
      "count": 168,
      "max": [
        0.07145698368549347,
        0.2727082669734955,
        0.12674470245838165
      ],
      "min": [
        -0.560849666595459,
        -0.018234653398394585,
        -0.02638939395546913
      ],
      "type": "VEC3"
    },
    {
      "bufferView": 2,
      "byteOffset": 46032,
      "componentType": 5126,
      "count": 168,
      "max": [
        0.9981447458267212,
        0.9993292093276978,
        0.9882886409759521
      ],
      "min": [
        -0.9838696718215942,
        -0.9985233545303345,
        -0.9972295761108398
      ],
      "type": "VEC3"
    },
    {
      "bufferView": 1,
      "byteOffset": 29344,
      "componentType": 5126,
      "count": 168,
      "max": [
        0.5830351114273071,
        0.761722207069397
      ],
      "min": [
        0.5451918840408325,
        0.6551503539085388
      ],
      "type": "VEC2"
    },
    {
      "bufferView": 1,
      "byteOffset": 30688,
      "componentType": 5126,
      "count": 168,
      "max": [
        0.5830351114273071,
        0.761722207069397
      ],
      "min": [
        0.5451918840408325,
        0.6551503539085388
      ],
      "type": "VEC2"
    },
    {
      "bufferView": 0,
      "byteOffset": 33504,
      "componentType": 5125,
      "count": 816,
      "type": "SCALAR"
    },
    {
      "bufferView": 2,
      "byteOffset": 48048,
      "componentType": 5126,
      "count": 332,
      "max": [
        0.10924181342124939,
        0.10924194753170013,
        0.04573308676481247
      ],
      "min": [
        -0.10924181342124939,
        -0.10924181342124939,
        -0.5930482149124146
      ],
      "type": "VEC3"
    },
    {
      "bufferView": 2,
      "byteOffset": 52032,
      "componentType": 5126,
      "count": 332,
      "max": [
        0.9291560053825378,
        0.9291563630104065,
        0.9955599308013916
      ],
      "min": [
        -0.9291560053825378,
        -0.9291563630104065,
        -0.9955598711967468
      ],
      "type": "VEC3"
    },
    {
      "bufferView": 1,
      "byteOffset": 32032,
      "componentType": 5126,
      "count": 332,
      "max": [
        0.978223443031311,
        0.9850960373878479
      ],
      "min": [
        0.622581958770752,
        0.2535472810268402
      ],
      "type": "VEC2"
    },
    {
      "bufferView": 1,
      "byteOffset": 34688,
      "componentType": 5126,
      "count": 332,
      "max": [
        0.978223443031311,
        0.9850960373878479
      ],
      "min": [
        0.622581958770752,
        0.2535472810268402
      ],
      "type": "VEC2"
    },
    {
      "bufferView": 0,
      "byteOffset": 36768,
      "componentType": 5125,
      "count": 1512,
      "type": "SCALAR"
    }
  ],
  "asset": {
    "extras": {
      "author": "MishletoDev (https://sketchfab.com/Violaty)",
      "license": "CC-BY-4.0 (http://creativecommons.org/licenses/by/4.0/)",
      "source": "https://sketchfab.com/3d-models/ps1-retro-toyota-ae86-b503f6bb7f15413eb6cc27f10faa7757",
      "title": "[PS1 / RETRO] Toyota AE86"
    },
    "generator": "Sketchfab-16.16.0",
    "version": "2.0"
  },
  "bufferViews": [
    {
      "buffer": 0,
      "byteLength": 42816,
      "name": "floatBufferViews",
      "target": 34963
    },
    {
      "buffer": 0,
      "byteLength": 37344,
      "byteOffset": 42816,
      "byteStride": 8,
      "name": "floatBufferViews",
      "target": 34962
    },
    {
      "buffer": 0,
      "byteLength": 56016,
      "byteOffset": 80160,
      "byteStride": 12,
      "name": "floatBufferViews",
      "target": 34962
    }
  ],
  "buffers": [
    {
      "byteLength": 136176,
      "uri": "scene.bin"
    }
  ],
  "extensionsUsed": [
    "KHR_materials_unlit"
  ],
  "images": [
    {
      "uri": "textures/Material.002_baseColor.png"
    }
  ],
  "materials": [
    {
      "doubleSided": true,
      "extensions": {
        "KHR_materials_unlit": {}
      },
      "name": "Material.002",
      "pbrMetallicRoughness": {
        "baseColorTexture": {
          "index": 0
        },
        "metallicFactor": 0.0
      }
    }
  ],
  "meshes": [
    {
      "name": "Cube.003_Material.002_0",
      "primitives": [
        {
          "attributes": {
            "NORMAL": 1,
            "POSITION": 0,
            "TEXCOORD_0": 2,
            "TEXCOORD_1": 3
          },
          "indices": 4,
          "material": 0,
          "mode": 4
        }
      ]
    },
    {
      "name": "Cylinder.001_Material.002_0",
      "primitives": [
        {
          "attributes": {
            "NORMAL": 6,
            "POSITION": 5,
            "TEXCOORD_0": 7,
            "TEXCOORD_1": 8
          },
          "indices": 9,
          "material": 0,
          "mode": 4
        }
      ]
    },
    {
      "name": "Cube.004_Material.002_0",
      "primitives": [
        {
          "attributes": {
            "NORMAL": 11,
            "POSITION": 10,
            "TEXCOORD_0": 12,
            "TEXCOORD_1": 13
          },
          "indices": 14,
          "material": 0,
          "mode": 4
        }
      ]
    },
    {
      "name": "Cube.005_Material.002_0",
      "primitives": [
        {
          "attributes": {
            "NORMAL": 16,
            "POSITION": 15,
            "TEXCOORD_0": 17,
            "TEXCOORD_1": 18
          },
          "indices": 19,
          "material": 0,
          "mode": 4
        }
      ]
    },
    {
      "name": "Cylinder.002_Material.002_0",
      "primitives": [
        {
          "attributes": {
            "NORMAL": 21,
            "POSITION": 20,
            "TEXCOORD_0": 22,
            "TEXCOORD_1": 23
          },
          "indices": 24,
          "material": 0,
          "mode": 4
        }
      ]
    }
  ],
  "nodes": [
    {
      "children": [
        1
      ],
      "matrix": [
        1.0,
        0.0,
        0.0,
        0.0,
        0.0,
        2.220446049250313e-16,
        -1.0,
        0.0,
        0.0,
        1.0,
        2.220446049250313e-16,
        0.0,
        0.0,
        0.0,
        0.0,
        1.0
      ],
      "name": "Sketchfab_model"
    },
    {
      "children": [
        2
      ],
      "matrix": [
        0.009999999776482582,
        0.0,
        0.0,
        0.0,
        0.0,
        0.0,
        0.009999999776482582,
        0.0,
        0.0,
        -0.009999999776482582,
        0.0,
        0.0,
        0.0,
        0.0,
        0.0,
        1.0
      ],
      "name": "f032e1009e9a42c69d54b741eccb6553.fbx"
    },
    {
      "children": [
        3,
        5,
        7,
        9,
        11,
        13
      ],
      "name": "RootNode"
    },
    {
      "children": [
        4
      ],
      "matrix": [
        7.549789959870878e-06,
        0.0,
        -99.9999999999997,
        0.0,
        -99.99999999999838,
        -1.6292067961387602e-05,
        -7.549789954319763e-06,
        0.0,
        -1.6292067972489832e-05,
        99.99999999999866,
        -1.2212453270876722e-12,
        0.0,
        0.06814897060394287,
        9.371137619018555,
        54.38128662109375,
        1.0
      ],
      "name": "Cube.003"
    },
    {
      "mesh": 0,
      "name": "Cube.003_Material.002_0"
    },
    {
      "children": [
        6
      ],
      "matrix": [
        1.805293528001073e-05,
        -92.71838096288857,
        37.46067046410596,
        0.0,
        2.9227228304229413e-06,
        -37.46067046410606,
        -92.71838096289022,
        0.0,
        99.99999999999835,
        1.7833260895772085e-05,
        -4.052849322810914e-06,
        0.0,
        27.43391990661621,
        11.095726013183594,
        49.679683685302734,
        1.0
      ],
      "name": "Cylinder.001"
    },
    {
      "mesh": 1,
      "name": "Cylinder.001_Material.002_0"
    },
    {
      "children": [
        8
      ],
      "matrix": [
        100.0,
        0.0,
        0.0,
        0.0,
        0.0,
        -2.8212996916465727e-05,
        -99.99999999999602,
        0.0,
        0.0,
        99.99999999999602,
        -2.8212996916465727e-05,
        0.0,
        19.486480712890625,
        25.575769424438477,
        74.7376708984375,
        1.0
      ],
      "name": "Cube.004"
    },
    {
      "mesh": 2,
      "name": "Cube.004_Material.002_0"
    },
    {
      "children": [
        10
      ],
      "matrix": [
        90.74422669633755,
        16.322955250594564,
        -38.71750156314247,
        0.0,
        -38.54135098457716,
        -4.363868914222745,
        -92.17114183140114,
        0.0,
        -16.734639080433865,
        98.56226062110821,
        2.3311289074868307,
        0.0,
        27.89744758605957,
        34.584320068359375,
        23.169918060302734,
        1.0
      ],
      "name": "Cube.005"
    },
    {
      "mesh": 3,
      "name": "Cube.005_Material.002_0"
    },
    {
      "children": [
        12
      ],
      "matrix": [
        1.805293528001073e-05,
        -92.71838096288857,
        37.46067046410596,
        0.0,
        2.9227228304229413e-06,
        -37.46067046410606,
        -92.71838096289022,
        0.0,
        99.99999999999835,
        1.7833260895772085e-05,
        -4.052849322810914e-06,
        0.0,
        27.43391990661621,
        11.095726013183594,
        -39.54465866088867,
        1.0
      ],
      "name": "Cylinder.002"
    },
    {
      "mesh": 4,
      "name": "Cylinder.002_Material.002_0"
    },
    {
      "children": [
        14
      ],
      "matrix": [
        -0.7318456088912019,
        -17.364818202747955,
        -98.47804038988936,
        0.0,
        -0.1290559873142097,
        98.48077475712503,
        -17.364341271368286,
        0.0,
        99.99723106465925,
        1.1638206354445666e-05,
        -0.7431376199358383,
        0.0,
        -0.3042161464691162,
        103.5147933959961,
        284.0486145019531,
        1.0
      ],
      "name": "Camera"
    },
    {
      "name": "Object_14"
    }
  ],
  "samplers": [
    {
      "magFilter": 9729,
      "minFilter": 9987,
      "wrapS": 10497,
      "wrapT": 10497
    }
  ],
  "scene": 0,
  "scenes": [
    {
      "name": "Sketchfab_Scene",
      "nodes": [
        0
      ]
    }
  ],
  "textures": [
    {
      "sampler": 0,
      "source": 0
    }
  ]
}
